<?xml version="1.0" encoding="UTF-8"?>
<svg id="Layer_1" data-name="Layer 1" xmlns="http://www.w3.org/2000/svg" viewBox="0 0 100 100">
  <defs>
    <style>
      .cls-1 {
        fill: #9d349a;
      }

      .cls-2 {
        fill: #b53d91;
      }

      .cls-3 {
        fill: #390ec0;
      }

      .cls-4 {
        fill: #1300ce;
      }

      .cls-5 {
        fill: #4513bb;
      }

      .cls-6 {
        fill: #c2428c;
      }

      .cls-7 {
        fill: #a93896;
      }

      .cls-8 {
        fill: #6b21ad;
      }

      .cls-9 {
        fill: #5217b7;
      }

      .cls-10 {
        fill: #5e1cb2;
      }

      .cls-11 {
        fill: #ce4688;
      }

      .cls-12 {
        fill: #842aa4;
      }

      .cls-13 {
        fill: #902f9f;
      }

      .cls-14 {
        fill: #db4b83;
      }

      .cls-15 {
        fill: #7726a9;
      }

      .cls-16 {
        fill: #2c09c5;
      }

      .cls-17 {
        fill: #1f05c9;
      }
    </style>
  </defs>
  <g>
    <path class="cls-14" d="M0,95v-1.27h100v1.27c0,2.76-2.24,5-5,5H5c-2.76,0-5-2.24-5-5Z"/>
    <rect class="cls-11" x="0" y="87.87" width="100" height="6.27"/>
    <rect class="cls-6" x="0" y="82.01" width="100" height="6.27"/>
    <rect class="cls-2" x="0" y="76.15" width="100" height="6.27"/>
    <rect class="cls-7" x="0" y="70.29" width="100" height="6.27"/>
    <rect class="cls-1" x="0" y="64.44" width="100" height="6.27"/>
    <rect class="cls-13" x="0" y="58.58" width="100" height="6.27"/>
    <rect class="cls-12" x="0" y="52.72" width="100" height="6.27"/>
    <rect class="cls-15" x="0" y="46.86" width="100" height="6.27"/>
    <rect class="cls-8" x="0" y="41" width="100" height="6.27"/>
    <rect class="cls-10" x="0" y="35.15" width="100" height="6.27"/>
    <rect class="cls-9" x="0" y="29.29" width="100" height="6.27"/>
    <rect class="cls-5" x="0" y="23.43" width="100" height="6.27"/>
    <rect class="cls-3" x="0" y="17.57" width="100" height="6.27"/>
    <rect class="cls-16" x="0" y="11.72" width="100" height="6.27"/>
    <rect class="cls-17" x="0" y="5.86" width="100" height="6.27"/>
    <path class="cls-4" d="M0,6.27v-1.27C0,2.24,2.24,0,5,0h90C97.76,0,100,2.24,100,5v1.27H0Z"/>
  </g>
  <path class="cls-14" d="M72.15,100H23.25c-2.76,0-5-2.24-5-5V5c0-2.76,2.24-5,5-5h21.35c5.45,0,12.44.45,18.2,3.96,4.64,2.83,10.19,8.65,10.19,20.36s-5.48,17.38-10.07,20.26c-5.5,3.46-12.12,4.1-17.04,4.18l30.37,43.37c2.32,3.31-.05,7.87-4.1,7.87Z"/>
</svg>